<svg xmlns="http://www.w3.org/2000/svg" width="21" height="20" viewBox="0 0 21 20"><path fill="#FFF" d="M17.92 3.065L16.251.763a1.824 1.824 0 0 0-1.479-.755L7.653 0v5.6a.278.278 0 0 1-.395.257l-1.413-.64a.275.275 0 0 0-.228-.002l-1.489.65a.286.286 0 0 1-.401-.258V0H2.191a.96.96 0 0 0-.958.97s.025 15.952.031 15.993c.084.509.379.962.811 1.242l2.334 1.528c.262.172.565.267.877.267h10.307a2.643 2.643 0 0 0 2.634-2.64V4.007a1.59 1.59 0 0 0-.307-.942zm-1.5 14.295a.822.822 0 0 1-.827.833H5.341l-1.675-1.089h10.341c.537 0 .953-.44.953-.979V2.039l1.459 2.027V17.36h.001z"/></svg>