<svg xmlns="http://www.w3.org/2000/svg" width="21" height="20" viewBox="0 0 21 20"><path fill="#FFF" d="M19.998 6.766l-5.759-.544a.988.988 0 0 1-.822-.61L11.353.613c-.329-.825-1.5-.825-1.83 0L7.476 5.611a.973.973 0 0 1-.824.61l-5.758.545C.035 6.848-.312 7.921.333 8.499l4.338 3.811a.993.993 0 0 1 .314.975L3.681 18.63c-.199.842.708 1.534 1.468 1.089l4.801-2.822a1 1 0 0 1 1.006 0l4.803 2.822c.759.445 1.666-.23 1.468-1.089l-1.288-5.345a.995.995 0 0 1 .313-.975l4.34-3.811c.627-.578.263-1.651-.594-1.733z"/></svg>